<svg xmlns="http://www.w3.org/2000/svg" viewBox="0 0 640 480" fill="none">
  <rect width="640" height="480" rx="36" fill="#F4F6EF"/>
  <circle cx="152" cy="116" r="74" fill="#14622E" fill-opacity=".08"/>
  <circle cx="514" cy="362" r="68" fill="#F4D35E" fill-opacity=".18"/>
  <rect x="124" y="86" width="210" height="288" rx="28" fill="white" stroke="#D8DED6" stroke-width="8"/>
  <rect x="154" y="120" width="80" height="80" rx="20" fill="#E8EEE6"/>
  <path d="M194 143C209.464 143 222 130.464 222 115C222 99.536 209.464 87 194 87C178.536 87 166 99.536 166 115C166 130.464 178.536 143 194 143Z" fill="#14622E" fill-opacity=".18"/>
  <path d="M158 196C166.934 173.029 188.556 157 214 157C239.444 157 261.066 173.029 270 196V200H158V196Z" fill="#14622E"/>
  <rect x="154" y="224" width="151" height="12" rx="6" fill="#D8DED6"/>
  <rect x="154" y="250" width="123" height="10" rx="5" fill="#E9EEE6"/>
  <rect x="154" y="274" width="138" height="10" rx="5" fill="#E9EEE6"/>
  <rect x="154" y="302" width="98" height="28" rx="14" fill="#14622E" fill-opacity=".1"/>
  <rect x="174" y="311" width="58" height="10" rx="5" fill="#14622E" fill-opacity=".5"/>
  <rect x="376" y="124" width="152" height="112" rx="22" fill="#14622E"/>
  <path d="M409 157H495" stroke="#F4F6EF" stroke-width="12" stroke-linecap="round"/>
  <path d="M409 186H472" stroke="#F4F6EF" stroke-opacity=".85" stroke-width="10" stroke-linecap="round"/>
  <path d="M409 210H448" stroke="#F4D35E" stroke-width="10" stroke-linecap="round"/>
  <rect x="360" y="272" width="192" height="122" rx="24" fill="white" stroke="#D8DED6" stroke-width="8"/>
  <path d="M389 349C389 326.909 406.909 309 429 309H483C505.091 309 523 326.909 523 349V362H389V349Z" fill="#E6EDE4"/>
  <path d="M449 341C469.435 341 486 324.435 486 304C486 283.565 469.435 267 449 267C428.565 267 412 283.565 412 304C412 324.435 428.565 341 449 341Z" fill="#F4D35E"/>
  <path d="M473 271L483 252L493 271" stroke="#14622E" stroke-width="8" stroke-linecap="round" stroke-linejoin="round"/>
  <path d="M214 402H466" stroke="#14622E" stroke-opacity=".12" stroke-width="10" stroke-linecap="round"/>
</svg>
