<svg xmlns="http://www.w3.org/2000/svg" viewBox="0 0 640 480" fill="none">
  <rect width="640" height="480" rx="36" fill="#F4F6EF"/>
  <circle cx="492" cy="114" r="72" fill="#14622E" fill-opacity=".08"/>
  <circle cx="134" cy="366" r="70" fill="#F4D35E" fill-opacity=".18"/>
  <rect x="146" y="112" width="348" height="226" rx="26" fill="white" stroke="#D8DED6" stroke-width="8"/>
  <rect x="183" y="151" width="78" height="78" rx="18" fill="#14622E" fill-opacity=".1"/>
  <path d="M200 213L222 188L238 203L256 180" stroke="#14622E" stroke-width="10" stroke-linecap="round" stroke-linejoin="round"/>
  <path d="M298 166H450" stroke="#D8DED6" stroke-width="12" stroke-linecap="round"/>
  <path d="M298 196H430" stroke="#E9EEE6" stroke-width="10" stroke-linecap="round"/>
  <path d="M298 226H409" stroke="#E9EEE6" stroke-width="10" stroke-linecap="round"/>
  <path d="M184 280H456" stroke="#14622E" stroke-opacity=".12" stroke-width="10" stroke-linecap="round"/>
  <rect x="174" y="316" width="108" height="30" rx="15" fill="#14622E"/>
  <rect x="196" y="326" width="64" height="10" rx="5" fill="#F4F6EF"/>
  <path d="M391 380C435.183 380 471 344.183 471 300" stroke="#14622E" stroke-width="12" stroke-linecap="round"/>
  <path d="M470 275L470 300L445 300" stroke="#14622E" stroke-width="12" stroke-linecap="round" stroke-linejoin="round"/>
  <path d="M207 396H431" stroke="#14622E" stroke-opacity=".12" stroke-width="10" stroke-linecap="round"/>
  <path d="M243 418H395" stroke="#14622E" stroke-opacity=".08" stroke-width="10" stroke-linecap="round"/>
</svg>
